<svg width="185" height="61" viewBox="0 0 185 61" fill="none" xmlns="http://www.w3.org/2000/svg">
<rect width="45" height="20.7537" transform="matrix(0.937774 -0.347245 0.0836708 0.996493 0.571426 23.4165)" fill="#00BDAA"/>
<rect width="45" height="20.7537" transform="matrix(0.937774 -0.347245 0.0836708 0.996493 4.95238 16.4164)" fill="#00A493"/>
<path d="M28.9778 25.9249C28.4078 25.2049 27.6278 24.6799 26.6378 24.3499C25.6778 23.9899 24.7628 23.8099 23.8928 23.8099C23.3828 23.8099 22.8578 23.8699 22.3178 23.9899C21.7778 24.1099 21.2678 24.3049 20.7878 24.5749C20.3078 24.8149 19.9178 25.1449 19.6178 25.5649C19.3178 25.9849 19.1678 26.4949 19.1678 27.0949C19.1678 28.0549 19.5278 28.7899 20.2478 29.2999C20.9678 29.8099 21.8678 30.2449 22.9478 30.6049C24.0578 30.9649 25.2428 31.3249 26.5028 31.6849C27.7628 32.0449 28.9328 32.5549 30.0128 33.2149C31.1228 33.8749 32.0378 34.7599 32.7578 35.8699C33.4778 36.9799 33.8378 38.4649 33.8378 40.3249C33.8378 42.0949 33.5078 43.6399 32.8478 44.9599C32.1878 46.2799 31.2878 47.3749 30.1478 48.2449C29.0378 49.1149 27.7328 49.7599 26.2328 50.1799C24.7628 50.5999 23.2028 50.8099 21.5528 50.8099C19.4828 50.8099 17.5628 50.4949 15.7928 49.8649C14.0228 49.2349 12.3728 48.2149 10.8428 46.8049L15.8378 41.3149C16.5578 42.2749 17.4578 43.0249 18.5378 43.5649C19.6478 44.0749 20.7878 44.3299 21.9578 44.3299C22.5278 44.3299 23.0978 44.2699 23.6678 44.1499C24.2678 43.9999 24.7928 43.7899 25.2428 43.5199C25.7228 43.2499 26.0978 42.9049 26.3678 42.4849C26.6678 42.0649 26.8178 41.5699 26.8178 40.9999C26.8178 40.0399 26.4428 39.2899 25.6928 38.7499C24.9728 38.1799 24.0578 37.6999 22.9478 37.3099C21.8378 36.9199 20.6378 36.5299 19.3478 36.1399C18.0578 35.7499 16.8578 35.2249 15.7478 34.5649C14.6378 33.9049 13.7078 33.0349 12.9578 31.9549C12.2378 30.8749 11.8778 29.4499 11.8778 27.6799C11.8778 25.9699 12.2078 24.4699 12.8678 23.1799C13.5578 21.8899 14.4578 20.8099 15.5678 19.9399C16.7078 19.0699 18.0128 18.4249 19.4828 18.0049C20.9528 17.5549 22.4678 17.3299 24.0278 17.3299C25.8278 17.3299 27.5678 17.5849 29.2478 18.0949C30.9278 18.6049 32.4428 19.4599 33.7928 20.6599L28.9778 25.9249ZM44.9626 15.9799V31.0999H45.0526C45.2026 30.6799 45.4576 30.2599 45.8176 29.8399C46.1776 29.4199 46.6126 29.0449 47.1226 28.7149C47.6326 28.3849 48.2326 28.1149 48.9226 27.9049C49.6126 27.6949 50.3626 27.5899 51.1726 27.5899C52.8826 27.5899 54.2626 27.8599 55.3126 28.3999C56.3626 28.9099 57.1726 29.6299 57.7426 30.5599C58.3426 31.4899 58.7476 32.5849 58.9576 33.8449C59.1676 35.1049 59.2726 36.4699 59.2726 37.9399V49.9999H52.5226V39.2899C52.5226 38.6599 52.4926 38.0149 52.4326 37.3549C52.4026 36.6649 52.2676 36.0349 52.0276 35.4649C51.8176 34.8949 51.4726 34.4299 50.9926 34.0699C50.5426 33.7099 49.8826 33.5299 49.0126 33.5299C48.1426 33.5299 47.4376 33.6949 46.8976 34.0249C46.3576 34.3249 45.9376 34.7449 45.6376 35.2849C45.3676 35.7949 45.1876 36.3799 45.0976 37.0399C45.0076 37.6999 44.9626 38.3899 44.9626 39.1099V49.9999H38.2126V15.9799H44.9626ZM63.2425 39.0649C63.2425 37.3249 63.5575 35.7499 64.1875 34.3399C64.8175 32.9299 65.6725 31.7299 66.7525 30.7399C67.8625 29.7199 69.1525 28.9399 70.6225 28.3999C72.1225 27.8599 73.7125 27.5899 75.3925 27.5899C77.0725 27.5899 78.6475 27.8599 80.1175 28.3999C81.6175 28.9399 82.9075 29.7199 83.9875 30.7399C85.0975 31.7299 85.9675 32.9299 86.5975 34.3399C87.2275 35.7499 87.5425 37.3249 87.5425 39.0649C87.5425 40.8049 87.2275 42.3799 86.5975 43.7899C85.9675 45.1999 85.0975 46.4149 83.9875 47.4349C82.9075 48.4249 81.6175 49.1899 80.1175 49.7299C78.6475 50.2699 77.0725 50.5399 75.3925 50.5399C73.7125 50.5399 72.1225 50.2699 70.6225 49.7299C69.1525 49.1899 67.8625 48.4249 66.7525 47.4349C65.6725 46.4149 64.8175 45.1999 64.1875 43.7899C63.5575 42.3799 63.2425 40.8049 63.2425 39.0649ZM69.9925 39.0649C69.9925 40.7149 70.4575 42.0499 71.3875 43.0699C72.3475 44.0899 73.6825 44.5999 75.3925 44.5999C77.1025 44.5999 78.4225 44.0899 79.3525 43.0699C80.3125 42.0499 80.7925 40.7149 80.7925 39.0649C80.7925 37.4149 80.3125 36.0799 79.3525 35.0599C78.4225 34.0399 77.1025 33.5299 75.3925 33.5299C73.6825 33.5299 72.3475 34.0399 71.3875 35.0599C70.4575 36.0799 69.9925 37.4149 69.9925 39.0649ZM92.1483 28.1299H98.3583V31.0099H98.4483C98.7183 30.6199 99.0633 30.2299 99.4833 29.8399C99.9333 29.4199 100.443 29.0449 101.013 28.7149C101.613 28.3849 102.258 28.1149 102.948 27.9049C103.638 27.6949 104.373 27.5899 105.153 27.5899C106.773 27.5899 108.243 27.8749 109.563 28.4449C110.883 28.9849 112.008 29.7649 112.938 30.7849C113.898 31.7749 114.633 32.9599 115.143 34.3399C115.653 35.7199 115.908 37.2349 115.908 38.8849C115.908 40.4149 115.668 41.8849 115.188 43.2949C114.738 44.6749 114.078 45.9049 113.208 46.9849C112.368 48.0649 111.333 48.9349 110.103 49.5949C108.873 50.2249 107.478 50.5399 105.918 50.5399C104.508 50.5399 103.188 50.3299 101.958 49.9099C100.758 49.4599 99.7683 48.7099 98.9883 47.6599H98.8983V60.2599H92.1483V28.1299ZM98.3583 39.0649C98.3583 40.7149 98.8233 42.0499 99.7533 43.0699C100.713 44.0899 102.048 44.5999 103.758 44.5999C105.468 44.5999 106.788 44.0899 107.718 43.0699C108.678 42.0499 109.158 40.7149 109.158 39.0649C109.158 37.4149 108.678 36.0799 107.718 35.0599C106.788 34.0399 105.468 33.5299 103.758 33.5299C102.048 33.5299 100.713 34.0399 99.7533 35.0599C98.8233 36.0799 98.3583 37.4149 98.3583 39.0649ZM119.953 15.9799H126.703V49.9999H119.953V15.9799ZM152.252 46.2199C151.172 47.5999 149.807 48.6649 148.157 49.4149C146.507 50.1649 144.797 50.5399 143.027 50.5399C141.347 50.5399 139.757 50.2699 138.257 49.7299C136.787 49.1899 135.497 48.4249 134.387 47.4349C133.307 46.4149 132.452 45.1999 131.822 43.7899C131.192 42.3799 130.877 40.8049 130.877 39.0649C130.877 37.3249 131.192 35.7499 131.822 34.3399C132.452 32.9299 133.307 31.7299 134.387 30.7399C135.497 29.7199 136.787 28.9399 138.257 28.3999C139.757 27.8599 141.347 27.5899 143.027 27.5899C144.587 27.5899 145.997 27.8599 147.257 28.3999C148.547 28.9399 149.627 29.7199 150.497 30.7399C151.397 31.7299 152.087 32.9299 152.567 34.3399C153.047 35.7499 153.287 37.3249 153.287 39.0649V41.1799H137.627C137.897 42.4699 138.482 43.5049 139.382 44.2849C140.282 45.0349 141.392 45.4099 142.712 45.4099C143.822 45.4099 144.752 45.1699 145.502 44.6899C146.282 44.1799 146.957 43.5349 147.527 42.7549L152.252 46.2199ZM146.537 36.5899C146.567 35.4499 146.192 34.4749 145.412 33.6649C144.632 32.8549 143.627 32.4499 142.397 32.4499C141.647 32.4499 140.987 32.5699 140.417 32.8099C139.847 33.0499 139.352 33.3649 138.932 33.7549C138.542 34.1149 138.227 34.5499 137.987 35.0599C137.777 35.5399 137.657 36.0499 137.627 36.5899H146.537ZM163.287 38.2999L155.997 28.1299H163.962L167.832 34.0699L171.567 28.1299H179.082L171.972 38.2999L180.387 49.9999H172.422L167.652 42.7099L162.522 49.9999H154.647L163.287 38.2999Z" fill="#292B2C"/>
</svg>
